PathFileType	4	(X/Y/Z)	C:/Users/beibeiliu/ov580/test_trc/capture2\sequence.6_training_dense_left.trc
DataRate	CameraRate	NumFrames	NumMarkers	Units	OrigDataRate	OrigDataStartFrame	OrigNumFrames
120	120	23	19	mm	120	1	353
Frame#	Time	ThumbCMC			ThumbMCP			ThumbIP			ThumbTip			IndexMCP			IndexPIP			IndexTip			MiddleMCP			MiddlePIP			MiddleTip			RingMCP			RingPIP			RingTip			PinkyMCP			PinkyPIP			PinkyTip			BackHand1			BackHand2			BackHand3	
		X0	Y0	Z0	X1	Y1	Z1	X2	Y2	Z2	X3	Y3	Z3	X4	Y4	Z4	X5	Y5	Z5	X6	Y6	Z6	X7	Y7	Z7	X8	Y8	Z8	X9	Y9	Z9	X10	Y10	Z10	X11	Y11	Z11	X12	Y12	Z12	X13	Y13	Z13	X14	Y14	Z14	X15	Y15	Z15	X16	Y16	Z16	X17	Y17	Z17	X18	Y18	Z18	
0	0	-113.308	52.402	-30.2205	-96.8158	37.7995	-45.4093	-75.0558	33.0497	-62.2014	-58.43	27.721	-79.8459	-118.49	62.1927	-106.183	-110.824	57.7836	-129.24	-106.613	57.2001	-158.791	-140.073	65.4048	-116.398	-140.325	62.6003	-142.892	-141.403	58.2488	-171.472	-159.695	62.2606	-116.374	-162.229	60.4947	-136.801	-164.208	58.1919	-163.09	-186.115	56.3511	-104.974	-190.227	53.4438	-122.146	-194.162	58.8163	-146.438	-165.827	74.9432	-67.8144	-170.959	78.7144	-33.604	-137.729	76.772	-48.2446	
1	0.00833333	-114.411	51.7598	-32.8718	-95.3952	38.5589	-46.7012	-79.6899	32.6118	-64.7983	-59.4645	26.8875	-80.58	-119.001	62.1621	-108.043	-112.193	58.0337	-133.909	-109.075	56.1271	-160.19	-139.422	65.1483	-118.967	-139.666	62.3445	-140.381	-141.665	57.8916	-171.492	-164.41	62.8065	-114.734	-161.325	59.6795	-137.227	-163.232	58.3446	-168.147	-183.647	55.2888	-100.971	-191.309	53.6966	-127.026	-197.042	59.4404	-144.52	-168.878	73.7557	-64.2776	-169.649	79.0943	-36.1768	-136.883	75.5695	-49.8748	
2	0.0166667	-114.608	51.2406	-31.0218	-97.6068	38.1907	-44.7271	-75.0062	31.8451	-66.4102	-62.8439	26.9736	-78.1515	-113.324	61.241	-110.652	-112.581	57.4816	-131.723	-105.741	55.9201	-155.563	-141.814	65.6748	-115.768	-139.718	61.8393	-141.329	-138.392	58.5762	-169.22	-159.237	62.5943	-112.119	-161.143	59.3408	-141.527	-163.89	57.9776	-167.055	-184.864	56.5339	-102.143	-191.069	53.1882	-124.573	-195.391	57.2135	-145.201	-169.177	74.4755	-64.7257	-168.822	77.2797	-36.0145	-138.585	75.5688	-47.1212	
3	0.025	-110.45	51.6163	-34.9391	-97.1086	37.9501	-47.7295	-77.1741	31.8169	-65.0983	-62.3135	26.6328	-76.1926	-116.063	61.4281	-110.296	-107.667	57.6952	-134.221	-111.024	55.7129	-155.305	-139.497	65.2619	-114.138	-139.78	61.5966	-143.245	-140.934	58.4184	-169.83	-158.503	62.5864	-114.629	-161.814	59.3163	-140.066	-161.466	57.8484	-161.754	-180.301	55.4208	-100.631	-186.424	54.2267	-124.137	-195.393	59.364	-144.381	-167.057	73.1706	-67.1713	-172.339	77.8016	-37.4407	-136.6	75.8545	-49.7862	
4	0.0333333	-115.418	51.2672	-31.8072	-95.1691	37.8528	-48.7171	-74.8924	31.8039	-62.5946	-59.1834	26.3732	-76.7224	-113.658	62.0699	-106.324	-109.822	58.5292	-129.289	-106.103	56.8643	-153.963	-136.669	65.7521	-119.534	-136.7	60.3331	-145.009	-138.172	58.6472	-167.813	-163.269	61.8011	-114.023	-160.376	59.6891	-141.226	-163.208	57.1503	-166.332	-185.731	55.4169	-103.013	-185.171	53.2265	-122.811	-195.454	59.2132	-144.565	-167.686	74.822	-66.5614	-166.383	78.0812	-38.0344	-137.323	74.7723	-49.7115	
5	0.0416667	-113.866	51.3623	-35.6795	-96.055	38.5929	-48.1279	-76.0082	32.3747	-67.1138	-58.465	26.5859	-78.1559	-112.961	61.7943	-104.977	-111.969	57.9105	-133.75	-106.817	56.6404	-154.186	-140.728	65.0152	-118.619	-137.563	61.5854	-142.312	-141.241	58.479	-169.288	-163.79	62.1406	-114.014	-163.791	59.6764	-141.114	-165.317	57.5592	-163.379	-183.396	56.4386	-102.515	-185.742	53.1449	-120.783	-196.426	56.8736	-143.984	-164.493	74.5499	-62.6866	-168.759	77.5518	-36.2377	-133.951	74.6519	-47.9499	
6	0.05	-111.284	52.5157	-34.9482	-93.254	39.0937	-48.1804	-78.2582	31.7753	-63.1193	-61.3418	27.3892	-78.4966	-116.037	62.5588	-110.687	-108.958	58.3829	-129.42	-109.034	57.0126	-155.182	-141.42	65.9216	-119.268	-137.45	62.4563	-140.309	-139.063	59.883	-171.422	-159.095	62.6088	-111.694	-162.781	59.9858	-138.325	-161.56	58.8288	-167.203	-185.443	56.4919	-102.913	-188.699	53.909	-126.36	-196.092	58.3521	-145.757	-163.395	73.0352	-62.4309	-170.249	78.5586	-35.0706	-137.051	77.307	-47.3819	
7	0.0583333	-112.732	53.6739	-30.4413	-95.2788	39.3316	-45.5386	-73.8659	33.6903	-65.6545	-58.5342	28.3419	-76.7588	-115.404	63.6569	-109.377	-108.094	58.3669	-134.247	-110.344	57.6173	-155.756	-139.961	66.0638	-118.984	-138.894	62.3987	-141.471	-136.058	58.8277	-174.051	-159.011	63.1202	-113.163	-165.255	59.9002	-139.164	-164.429	57.9047	-163.94	-185.083	57.5127	-105.572	-187.003	53.8102	-123.084	-195.214	58.2547	-149.054	-169.159	73.9627	-63.3798	-170.409	78.5779	-37.2586	-134.426	78.3931	-48.2286	
8	0.0666667	-113.989	52.5869	-32.7942	-96.8355	39.0228	-48.1738	-79.6872	33.5584	-64.979	-60.1552	28.9553	-80.706	-116.813	63.6244	-106.419	-110.482	59.0709	-134.595	-105.804	56.3249	-158.973	-140.617	66.068	-115.073	-142.255	61.8589	-144.625	-139.707	58.3718	-170.89	-161.863	62.6935	-114.513	-165.332	59.4453	-138.198	-161.532	56.9249	-165.863	-186.072	55.9841	-100.492	-187.555	53.128	-121.549	-196.339	57.7324	-146.333	-167.624	72.5771	-64.3688	-172.896	77.4697	-34.0069	-138.001	75.9589	-46.8941	
9	0.075	-117.343	52.9418	-31.2018	-94.2134	39.5798	-45.7943	-76.3414	34.9914	-60.7738	-64.2754	28.6494	-77.6307	-116.622	62.7339	-107.162	-114.627	59.1942	-129.835	-111.009	57.4029	-156.206	-140.071	65.7977	-116.938	-139.124	62.0274	-141.827	-139.912	57.3425	-169.075	-159.573	62.3914	-114.92	-167.258	59.3314	-136.216	-164.348	55.621	-163.783	-182.285	54.6817	-99.4321	-189.667	52.0799	-123.851	-194.98	55.5902	-145.479	-171.568	72.5882	-63.8282	-173.204	77.5233	-37.8313	-138.311	76.298	-45.8337	
10	0.0833333	-114.651	54.3706	-33.1973	-96.2202	40.9504	-46.1761	-77.1176	35.274	-63.6455	-59.9715	30.763	-78.3547	-119.263	62.243	-108.988	-112.18	58.4928	-130.814	-111.832	56.7002	-158.72	-141.63	65.5305	-118.926	-140.413	61.1155	-141.053	-144.018	57.0156	-169.307	-166.526	60.98	-113.474	-167.143	58.7443	-136.675	-164.373	56.2715	-165.28	-182.66	54.1527	-99.9491	-189.221	52.3087	-123.431	-195.238	54.3531	-145.259	-171.633	72.4498	-63.6579	-172.598	76.2498	-38.8042	-140.392	77.3794	-47.7568	
11	0.0916667	-118.281	53.1105	-31.0674	-93.8945	41.3685	-43.7962	-75.5503	36.4612	-61.7551	-63.4565	31.151	-78.2402	-117.581	62.3491	-109.177	-111.899	58.2072	-133.239	-112.487	56.9097	-155.002	-141.773	65.0285	-115.961	-142.658	61.1831	-143.161	-142.323	57.1361	-172.733	-165.088	60.9611	-111.306	-163.898	58.4602	-135.86	-166.772	56.2966	-161.865	-181.643	54.9272	-105.063	-187.026	51.0574	-121.371	-197.774	54.3054	-146.522	-170.905	73.818	-65.5973	-174.851	77.5479	-37.088	-137.063	75.0478	-48.8243	
12	0.1	-117.559	54.4367	-35.3854	-98.8674	40.4264	-47.1812	-75.2966	36.051	-62.1153	-60.1777	32.5753	-76.9981	-116.466	63.3064	-109.981	-109.923	59.5267	-131.939	-110.967	57.903	-153.839	-139.495	65.4049	-117.779	-141.497	61.0306	-144.544	-142.835	57.7247	-169.041	-166.038	61.7118	-113.184	-161.919	58.6803	-139.12	-164.753	55.8661	-163.647	-185.094	53.6433	-100.952	-188.434	50.2768	-120.849	-195.481	54.8529	-147.462	-166.427	71.6472	-66.3189	-172.417	76.777	-34.4504	-139.508	75.2484	-46.6183	
13	0.108333	-116.565	54.3598	-31.0052	-94.203	42.5168	-47.1237	-75.3573	38.2609	-65.3549	-60.7009	33.1474	-80.2094	-121.511	65.7845	-106.838	-113.952	63.2208	-129.593	-111.707	60.487	-157.915	-141.625	67.3963	-119.384	-139.966	62.2523	-143.794	-140.351	58.1669	-168.332	-163.171	62.222	-115.145	-164.088	58.3541	-135.714	-163.368	55.3044	-161.991	-181.871	55.0523	-105.42	-188.99	49.9008	-126.614	-193.294	53.5015	-147.651	-168.125	71.7315	-65.9606	-172.876	77.9563	-36.6445	-140.503	78.8366	-44.4212	
14	0.116667	-114.991	58.2024	-31.5479	-96.2621	45.2054	-45.106	-76.6107	40.4124	-64.3456	-64.4854	36.1948	-82.0585	-122.27	70.5294	-109.274	-116.502	67.6223	-131.31	-113.393	64.6535	-157.104	-141.446	69.8921	-115.538	-139.651	64.7105	-142.079	-141.508	57.5154	-173.531	-163.221	63.652	-113.938	-164.083	59.3126	-138.278	-161.761	54.3608	-161.548	-186.169	54.612	-105.169	-188.964	50.4485	-122.143	-195.284	52.2986	-150.117	-173.753	73.7811	-62.9585	-173.436	75.3581	-36.1393	-142.989	80.0498	-46.4952	
15	0.125	-116.238	59.585	-31.8583	-97.7403	46.8109	-49.3681	-77.3649	43.6842	-70.3211	-65.6311	38.1956	-82.4544	-122.325	76.2616	-106.032	-114.852	74.6853	-130.473	-116.996	71.1514	-159.669	-146.195	72.8931	-114.086	-139.556	66.8323	-144.592	-139.699	57.5125	-169.518	-165.832	65.5472	-111.609	-163.092	60.0536	-136.635	-161.842	50.8169	-162.86	-186.846	54.5705	-103.381	-186.183	50.1934	-123.984	-189.562	48.884	-150.31	-172.512	73.3296	-64.3272	-176.052	75.5701	-34.2596	-143.052	83.8973	-47.4213	
16	0.133333	-117.578	61.3077	-29.4624	-97.2806	48.6088	-51.5979	-81.9237	45.1649	-68.8667	-67.3531	42.4895	-88.6948	-126.224	79.6248	-102.269	-121.057	77.554	-131.796	-119.583	75.8716	-155.398	-149.339	73.456	-111.424	-144.923	66.1321	-142.346	-139.565	50.0675	-166.565	-163.606	66.4904	-111.414	-164.548	58.1465	-139.384	-156.239	40.9777	-163.963	-185.018	54.1537	-103.345	-185.436	48.854	-123.971	-183.675	41.0062	-149.143	-175.983	73.1025	-58.5808	-177.588	75.9749	-34.3087	-147.641	84.1684	-46.2869	
17	0.141667	-116.621	64.8737	-30.5684	-100.392	50.8434	-47.3868	-82.9338	48.1632	-67.9301	-68.6996	45.7283	-88.0754	-125.808	84.8858	-99.8651	-123.674	83.05	-130.575	-121.402	80.0476	-153.876	-149.051	76.9433	-114.737	-142.119	66.7151	-140.641	-133.254	36.6849	-160.32	-167.28	66.8352	-111.366	-163.165	56.0934	-137.141	-144.083	32.6961	-151.568	-182.384	54.4638	-99.5493	-181.534	44.79	-127.478	-171.882	31.1885	-145.182	-175.246	73.7882	-60.3882	-181.201	73.5977	-34.0453	-151.464	84.6189	-43.5942	
18	0.15	-117.257	68.8946	-32.3663	-102.036	54.996	-48.2983	-81.055	53.0329	-72.3686	-74.6909	49.5024	-91.8224	-130.566	87.1151	-99.6275	-126.331	89.0213	-128.685	-126.661	82.4661	-155.158	-150.551	78.5271	-111.842	-142.371	59.6617	-142.027	-129.065	32.1108	-143.856	-167.141	65.1685	-109.854	-158.298	47.24	-137.265	-135.212	20.8529	-135.086	-181.586	51.0393	-100.521	-171.691	39.9159	-127.093	-153.797	22.1858	-135.04	-176.22	71.9283	-58.7668	-183.867	72.5865	-31.3395	-154.23	83.1624	-42.8479	
19	0.158333	-120.736	71.4462	-33.1256	-97.8313	61.1391	-50.0239	-83.0988	58.6666	-72.1514	-72.7329	54.9602	-93.7187	-137.409	90.8055	-105.273	-132.484	91.5367	-127.944	-129.612	83.6993	-156.248	-151.44	76.0127	-117.113	-135.01	58.091	-137.544	-120.769	29.0424	-124.93	-166.396	59.273	-115.629	-151.025	42.1824	-131.959	-127.443	20.1906	-114.876	-180.219	45.8444	-101.143	-165.765	30.6765	-123.803	-140.35	13.184	-115.173	-179.428	71.4804	-62.6222	-182.322	68.0476	-30.128	-152.921	87.5147	-42.2043	
20	0.166667	-123.911	73.469	-32.1639	-98.5711	64.9244	-54.4596	-82.7412	63.4674	-76.7295	-74.2111	58.1365	-98.9961	-141.455	91.4899	-101.325	-138.442	91.6346	-132.89	-133.173	84.2265	-159.271	-152.884	70.7757	-115.009	-131.007	54.1587	-132.897	-115.318	32.1239	-106.639	-163.045	53.9472	-113.085	-139.741	31.7011	-124.246	-123.779	25.5125	-97.6738	-174.156	39.9425	-103.049	-153.384	23.2143	-116.247	-130.347	17.482	-95.6472	-179.964	65.8061	-62.1807	-182.917	64.8775	-34.3482	-159.784	85.3873	-46.895	
21	0.175	-124.942	77.4616	-36.0589	-103.097	65.849	-51.4571	-85.3166	65.7032	-76.2226	-79.2801	59.7736	-95.6723	-146.068	93.0839	-103.773	-141.424	95.2641	-130.359	-136.454	87.8136	-155.747	-148.115	71.1911	-117.469	-126.214	48.7721	-124.86	-114.26	38.7716	-94.312	-158.494	50.0259	-110.928	-131.106	31.59	-113.167	-124.494	30.9865	-81.3693	-164.762	35.2723	-104.1	-139.022	21.8391	-103.515	-129.839	23.2956	-76.0318	-181.96	62.9612	-63.365	-185.598	59.2714	-30.9074	-163.163	83.7919	-44.3186	
22	0.183333	-127.561	77.2078	-33.4508	-105.386	67.9183	-57.6994	-88.3128	67.67	-79.7463	-80.2486	62.7635	-103.292	-149.729	95.6926	-99.4605	-146.604	95.2433	-128.998	-139.608	86.9984	-153.256	-147.965	69.8966	-113.462	-126.641	49.5005	-119.858	-118.83	44.698	-80.5651	-152.984	50.2837	-106.649	-127.18	31.3821	-103.689	-125.926	40.5642	-71.2094	-159.66	30.0288	-100.833	-132.843	22.3216	-89.7178	-132.418	30.0682	-60.5965	-185.748	57.6278	-63.0389	-188.736	55.799	-29.3618	-167.422	83.7569	-42.5737	
